<?xml version="1.0" standalone="no"?>
<!DOCTYPE svg PUBLIC "-//W3C//DTD SVG 20010904//EN" "http://www.w3.org/TR/2001/REC-SVG-20010904/DTD/svg10.dtd">
<svg version="1.0" xmlns="http://www.w3.org/2000/svg"
    width="1070.000000pt" height="658.000000pt" viewBox="0 0 1070.000000 658.000000"
    preserveAspectRatio="xMidYMid meet">

    <g transform="translate(0.000000,658.000000) scale(0.100000,-0.100000)"
        stroke="none">
        <path
            d="M2534 6565 c-83 -18 -138 -48 -205 -111 -228 -218 -149 -605 145
-711 286 -103 578 100 578 402 0 216 -150 391 -362 425 -78 12 -79 12 -156 -5z" />
        <path
            d="M287 6190 c-141 -24 -250 -135 -277 -283 -16 -83 -7 -2483 9 -2597
64 -458 220 -809 471 -1060 189 -189 392 -295 664 -345 107 -20 286 -24 342
-7 93 27 185 117 220 213 9 24 16 76 16 114 0 99 -29 172 -97 240 -66 66 -130
91 -262 104 -171 16 -281 69 -392 187 -138 148 -234 374 -276 649 -12 79 -15
209 -15 627 l0 527 393 3 392 3 58 27 c125 59 199 176 199 313 -1 114 -49 210
-138 274 -88 64 -91 64 -516 69 l-387 4 -3 341 -3 342 -26 56 c-52 109 -138
177 -253 198 -33 6 -62 10 -65 10 -3 -1 -27 -5 -54 -9z" />
        <path
            d="M5110 5314 c-269 -15 -543 -99 -760 -233 -374 -232 -637 -586 -746
-1004 -45 -175 -47 -204 -51 -1035 -3 -510 -1 -816 6 -858 13 -84 44 -147 99
-202 98 -99 261 -124 388 -61 57 29 129 105 157 167 22 47 22 51 28 882 5 729
7 844 22 904 82 340 314 598 638 709 110 38 206 50 349 44 150 -6 262 -35 387
-102 249 -132 422 -352 495 -628 21 -80 22 -104 28 -917 6 -854 6 -862 46
-926 95 -154 291 -212 447 -132 53 27 119 94 146 150 41 85 43 140 38 975 -4
757 -5 804 -25 909 -89 470 -361 870 -762 1121 -263 164 -615 253 -930 237z" />
        <path
            d="M7719 5210 c-104 -17 -203 -91 -248 -183 -41 -85 -43 -125 -38 -966
4 -858 4 -854 56 -1056 132 -515 514 -943 1007 -1129 226 -85 518 -125 704
-96 257 41 608 210 765 369 27 28 53 51 57 51 15 0 9 -438 -7 -543 -26 -172
-82 -308 -187 -449 -91 -124 -207 -216 -363 -289 -113 -53 -215 -78 -363 -89
-148 -10 -204 -33 -276 -110 -70 -75 -91 -127 -91 -230 0 -72 4 -94 28 -145
36 -78 95 -137 171 -171 56 -26 69 -28 175 -27 731 12 1372 532 1550 1258 42
172 42 190 39 1915 l-3 1655 -24 50 c-32 63 -99 131 -157 156 -172 77 -365 9
-450 -158 l-29 -58 -6 -840 c-4 -553 -10 -855 -17 -885 -53 -220 -137 -374
-279 -511 -326 -317 -812 -362 -1193 -110 -161 106 -306 294 -371 477 -54 154
-52 128 -58 1029 -6 831 -6 841 -27 886 -66 142 -215 224 -365 199z" />
        <path
            d="M2571 5199 c-104 -20 -189 -91 -239 -197 l-27 -57 0 -1395 0 -1395
24 -59 c59 -147 209 -232 361 -204 69 12 101 29 157 81 54 50 87 113 102 192
15 82 15 2678 0 2760 -6 33 -20 78 -31 100 -26 51 -93 121 -138 145 -30 15
-141 42 -159 39 -3 -1 -26 -5 -50 -10z" />
        <path
            d="M3824 1506 c-11 -17 -15 -43 -13 -82 3 -64 8 -58 -82 -97 l-57 -25
-48 49 c-27 27 -57 49 -69 49 -27 0 -205 -178 -205 -206 0 -11 22 -41 49 -68
l49 -48 -23 -52 c-12 -28 -25 -59 -28 -68 -5 -15 -18 -18 -69 -18 -105 0 -108
-5 -108 -165 0 -160 3 -165 108 -165 51 0 64 -3 69 -17 3 -10 16 -41 28 -69
l23 -52 -49 -48 c-27 -27 -49 -57 -49 -69 0 -27 178 -205 205 -205 11 0 41 21
67 47 l48 47 67 -30 68 -30 5 -65 c7 -98 9 -99 166 -99 131 0 134 1 150 24 11
17 15 43 13 82 -3 64 -8 58 82 97 l57 25 48 -49 c27 -27 57 -49 69 -49 27 0
205 178 205 206 0 11 -22 41 -49 68 l-49 48 23 52 c12 28 25 59 28 69 5 14 18
17 69 17 105 0 108 5 108 165 0 160 -3 165 -108 165 -51 0 -64 3 -69 18 -3 9
-16 40 -28 68 l-23 52 49 48 c27 27 49 57 49 69 0 27 -178 205 -206 205 -11 0
-40 -20 -64 -45 -24 -25 -49 -45 -55 -45 -13 0 -123 45 -132 54 -4 3 -5 31 -4
62 2 37 -3 63 -13 80 -16 23 -19 24 -151 24 -132 0 -135 -1 -151 -24z m263
-508 c58 -27 110 -91 130 -158 40 -137 -51 -281 -197 -312 -82 -17 -156 7
-220 72 -201 200 30 521 287 398z" />
        <path
            d="M7510 1432 c-72 -36 -71 -20 -68 -644 3 -547 3 -557 24 -585 24 -32
77 -53 116 -46 14 3 42 18 62 35 l36 29 0 567 c0 551 -1 568 -20 600 -19 30
-71 62 -102 62 -7 0 -29 -8 -48 -18z" />
        <path
            d="M4963 1416 l-28 -24 -3 -404 c-3 -451 0 -486 63 -616 60 -125 157
-199 293 -223 76 -14 124 4 148 54 32 67 -9 130 -92 142 -63 10 -94 26 -131
69 -62 70 -76 129 -81 344 l-4 192 119 0 c108 0 123 2 154 23 70 47 57 147
-21 174 -19 7 -83 12 -142 12 l-108 1 0 111 c0 109 0 111 -29 140 -39 38 -97
40 -138 5z" />
        <path
            d="M7986 1084 c-70 -17 -113 -42 -157 -91 -44 -51 -60 -95 -60 -170 0
-77 25 -137 79 -184 20 -18 90 -58 156 -89 132 -62 159 -85 158 -130 -1 -39
-8 -49 -48 -66 -50 -21 -108 -17 -181 12 -62 25 -68 26 -98 11 -18 -9 -37 -28
-45 -47 -11 -27 -11 -36 3 -66 9 -19 21 -34 25 -34 5 0 21 -11 36 -25 33 -30
81 -44 176 -52 236 -18 405 136 369 335 -18 97 -88 161 -249 228 -51 21 -105
50 -121 65 -39 36 -39 79 -1 109 28 22 62 23 160 4 71 -14 134 50 111 113 -27
80 -164 113 -313 77z" />
        <path
            d="M5813 1065 c-85 -19 -157 -59 -223 -126 -267 -270 -116 -724 261
-782 147 -23 280 22 390 132 68 69 100 124 124 218 65 249 -107 514 -364 563
-69 13 -111 12 -188 -5z m208 -246 c56 -28 106 -93 120 -154 51 -228 -232
-378 -393 -208 -54 57 -76 165 -48 238 48 127 199 185 321 124z" />
        <path
            d="M6803 1065 c-85 -19 -157 -59 -223 -126 -267 -270 -116 -724 261
-782 147 -23 280 22 390 132 68 69 100 124 124 218 65 249 -107 514 -364 563
-69 13 -111 12 -188 -5z m208 -246 c56 -28 106 -93 120 -154 51 -228 -232
-378 -393 -208 -54 57 -76 165 -48 238 48 127 199 185 321 124z" />
    </g>
</svg>